# Exported from Wings 3D 2.3
mtllib Stairs.mtl
o Stairs
#60 vertices, 50 faces
v -7.47110394 -1.58251582 -0.84288092
v -7.47110394 -3.58251582 -0.84288092
v -7.47110394 -1.58251582 1.15711908
v -7.47110394 -3.58251582 1.15711908
v -5.47110394 -1.58251582 -0.84288092
v -5.47110394 -3.58251582 -0.84288092
v -5.47110394 -1.58251582 1.15711908
v -5.47110394 -3.58251582 1.15711908
v -7.47110394 -7.64118248 1.15711908
v -7.47110394 -7.64118248 -0.84288092
v -5.47110394 -7.64118248 -0.84288092
v -5.47110394 -7.64118248 1.15711908
v 0.25132624 -1.58251582 6.36784503
v 0.25132624 -3.58251582 6.36784503
v 0.25132624 -1.58251582 8.36784503
v 0.25132624 -3.58251582 8.36784503
v 2.25132624 -1.58251582 6.36784503
v 2.25132624 -3.58251582 6.36784503
v 2.25132624 -1.58251582 8.36784503
v 2.25132624 -3.58251582 8.36784503
v 0.25132624 -7.64118248 8.36784503
v 0.25132624 -7.64118248 6.36784503
v 2.25132624 -7.64118248 6.36784503
v 2.25132624 -7.64118248 8.36784503
v -1.65762096 -1.58251582 4.50314837
v -1.65762096 -3.58251582 4.50314837
v -1.65762096 -1.58251582 6.50314837
v -1.65762096 -3.58251582 6.50314837
v 0.34237904 -1.58251582 4.50314837
v 0.34237904 -3.58251582 4.50314837
v 0.34237904 -1.58251582 6.50314837
v 0.34237904 -3.58251582 6.50314837
v -1.65762096 -7.64118248 6.50314837
v -1.65762096 -7.64118248 4.50314837
v 0.34237904 -7.64118248 4.50314837
v 0.34237904 -7.64118248 6.50314837
v -3.57381202 -1.58251582 2.72798184
v -3.57381202 -3.58251582 2.72798184
v -3.57381202 -1.58251582 4.72798184
v -3.57381202 -3.58251582 4.72798184
v -1.57381202 -1.58251582 2.72798184
v -1.57381202 -3.58251582 2.72798184
v -1.57381202 -1.58251582 4.72798184
v -1.57381202 -3.58251582 4.72798184
v -3.57381202 -7.64118248 4.72798184
v -3.57381202 -7.64118248 2.72798184
v -1.57381202 -7.64118248 2.72798184
v -1.57381202 -7.64118248 4.72798184
v -5.49000309 -1.58251582 1.02595330
v -5.49000309 -3.58251582 1.02595330
v -5.49000309 -1.58251582 3.02595330
v -5.49000309 -3.58251582 3.02595330
v -3.49000309 -1.58251582 1.02595330
v -3.49000309 -3.58251582 1.02595330
v -3.49000309 -1.58251582 3.02595330
v -3.49000309 -3.58251582 3.02595330
v -5.49000309 -7.64118248 3.02595330
v -5.49000309 -7.64118248 1.02595330
v -3.49000309 -7.64118248 1.02595330
v -3.49000309 -7.64118248 3.02595330
vn -0.57735027 0.57735027 -0.57735027
vn -0.70710678 -3.8968622e-17 -0.70710678
vn -0.57735027 0.57735027 0.57735027
vn -0.70710678 5.8594778e-17 0.70710678
vn 0.57735027 0.57735027 -0.57735027
vn 0.70710678 -3.8968622e-17 -0.70710678
vn 0.57735027 0.57735027 0.57735027
vn 0.70710678 5.8594778e-17 0.70710678
vn -0.57735027 -0.57735027 0.57735027
vn -0.57735027 -0.57735027 -0.57735027
vn 0.57735027 -0.57735027 -0.57735027
vn 0.57735027 -0.57735027 0.57735027
vn -0.57735027 0.57735027 -0.57735027
vn -0.70710678 -7.7369865e-17 -0.70710678
vn -0.57735027 0.57735027 0.57735027
vn -0.70710678 0.0000000e+0 0.70710678
vn 0.57735027 0.57735027 -0.57735027
vn 0.70710678 -7.7369865e-17 -0.70710678
vn 0.57735027 0.57735027 0.57735027
vn 0.70710678 0.0000000e+0 0.70710678
vn -0.57735027 -0.57735027 0.57735027
vn -0.57735027 -0.57735027 -0.57735027
vn 0.57735027 -0.57735027 -0.57735027
vn 0.57735027 -0.57735027 0.57735027
vn -0.57735027 0.57735027 -0.57735027
vn -0.70710678 -7.7369865e-17 -0.70710678
vn -0.57735027 0.57735027 0.57735027
vn -0.70710678 7.7369865e-17 0.70710678
vn 0.57735027 0.57735027 -0.57735027
vn 0.70710678 -7.7369865e-17 -0.70710678
vn 0.57735027 0.57735027 0.57735027
vn 0.70710678 7.7369865e-17 0.70710678
vn -0.57735027 -0.57735027 0.57735027
vn -0.57735027 -0.57735027 -0.57735027
vn 0.57735027 -0.57735027 -0.57735027
vn 0.57735027 -0.57735027 0.57735027
vn -0.57735027 0.57735027 -0.57735027
vn -0.70710678 -3.8684932e-17 -0.70710678
vn -0.57735027 0.57735027 0.57735027
vn -0.70710678 7.7369865e-17 0.70710678
vn 0.57735027 0.57735027 -0.57735027
vn 0.70710678 -3.8684932e-17 -0.70710678
vn 0.57735027 0.57735027 0.57735027
vn 0.70710678 7.7369865e-17 0.70710678
vn -0.57735027 -0.57735027 0.57735027
vn -0.57735027 -0.57735027 -0.57735027
vn 0.57735027 -0.57735027 -0.57735027
vn 0.57735027 -0.57735027 0.57735027
vn -0.57735027 0.57735027 -0.57735027
vn -0.70710678 -5.8594778e-17 -0.70710678
vn -0.57735027 0.57735027 0.57735027
vn -0.70710678 3.8684932e-17 0.70710678
vn 0.57735027 0.57735027 -0.57735027
vn 0.70710678 -5.8594778e-17 -0.70710678
vn 0.57735027 0.57735027 0.57735027
vn 0.70710678 3.8684932e-17 0.70710678
vn -0.57735027 -0.57735027 0.57735027
vn -0.57735027 -0.57735027 -0.57735027
vn 0.57735027 -0.57735027 -0.57735027
vn 0.57735027 -0.57735027 0.57735027
g Stairs_default
usemtl default
s 1
f 1//1 5//5 6//6 2//2
f 2//2 4//4 3//3 1//1
f 2//2 10//10 9//9 4//4
f 3//3 7//7 5//5 1//1
f 4//4 8//8 7//7 3//3
f 4//4 9//9 12//12 8//8
f 5//5 7//7 8//8 6//6
f 6//6 11//11 10//10 2//2
f 8//8 12//12 11//11 6//6
f 10//10 11//11 12//12 9//9
f 13//13 17//17 18//18 14//14
f 14//14 16//16 15//15 13//13
f 14//14 22//22 21//21 16//16
f 15//15 19//19 17//17 13//13
f 16//16 20//20 19//19 15//15
f 16//16 21//21 24//24 20//20
f 17//17 19//19 20//20 18//18
f 18//18 23//23 22//22 14//14
f 20//20 24//24 23//23 18//18
f 22//22 23//23 24//24 21//21
f 25//25 29//29 30//30 26//26
f 26//26 28//28 27//27 25//25
f 26//26 34//34 33//33 28//28
f 27//27 31//31 29//29 25//25
f 28//28 32//32 31//31 27//27
f 28//28 33//33 36//36 32//32
f 29//29 31//31 32//32 30//30
f 30//30 35//35 34//34 26//26
f 32//32 36//36 35//35 30//30
f 34//34 35//35 36//36 33//33
f 37//37 41//41 42//42 38//38
f 38//38 40//40 39//39 37//37
f 38//38 46//46 45//45 40//40
f 39//39 43//43 41//41 37//37
f 40//40 44//44 43//43 39//39
f 40//40 45//45 48//48 44//44
f 41//41 43//43 44//44 42//42
f 42//42 47//47 46//46 38//38
f 44//44 48//48 47//47 42//42
f 46//46 47//47 48//48 45//45
f 49//49 53//53 54//54 50//50
f 50//50 52//52 51//51 49//49
f 50//50 58//58 57//57 52//52
f 51//51 55//55 53//53 49//49
f 52//52 56//56 55//55 51//51
f 52//52 57//57 60//60 56//56
f 53//53 55//55 56//56 54//54
f 54//54 59//59 58//58 50//50
f 56//56 60//60 59//59 54//54
f 58//58 59//59 60//60 57//57
